<svg width="49" height="52" viewBox="0 0 49 52" fill="none" xmlns="http://www.w3.org/2000/svg">
<path d="M21.0765 32.7235L26.0491 32.2009L26.0954 29.0538C26.4139 28.8947 26.6991 28.7181 26.951 28.524C27.2029 28.3299 27.4216 28.1184 27.607 27.8894L30.5969 28.8321L32.639 24.344L29.9567 22.7406C30.0047 22.4004 30.0113 22.0646 29.9765 21.733C29.9416 21.4015 29.8654 21.0744 29.7476 20.7516L32.038 18.6255L29.1074 14.6601L26.3788 16.2038C26.1498 16.0184 25.892 15.857 25.6052 15.7195C25.3184 15.5821 25.0028 15.4686 24.6582 15.3791L23.9586 12.3105L18.986 12.8331L18.9397 15.9802C18.6212 16.1393 18.3361 16.316 18.0841 16.51C17.8322 16.7041 17.6135 16.9156 17.4281 17.1446L14.4382 16.2019L12.3961 20.69L15.0784 22.2934C15.0304 22.6336 15.0238 22.9695 15.0587 23.301C15.0935 23.6325 15.1698 23.9596 15.2875 24.2824L12.9972 26.4085L15.9277 30.3739L18.6563 28.8302C18.8853 29.0156 19.1432 29.177 19.4299 29.3145C19.7167 29.4519 20.0324 29.5654 20.3769 29.6549L21.0765 32.7235ZM22.9095 26.2465C21.8736 26.3553 20.9549 26.0853 20.1535 25.4364C19.3521 24.7874 18.897 23.9449 18.7881 22.909C18.6792 21.873 18.9493 20.9543 19.5982 20.153C20.2472 19.3516 21.0896 18.8964 22.1256 18.7875C23.1615 18.6787 24.0802 18.9487 24.8816 19.5977C25.683 20.2466 26.1381 21.0891 26.247 22.125C26.3559 23.161 26.0859 24.0797 25.4369 24.8811C24.788 25.6824 23.9455 26.1376 22.9095 26.2465ZM10.4743 51.4343L9.35058 40.7432C6.76211 38.8366 4.66388 36.512 3.05587 33.7692C1.44786 31.0264 0.476181 28.0596 0.14082 24.8689C-0.51248 18.6531 1.10773 13.1411 5.00146 8.33273C8.89518 3.52438 13.9499 0.793562 20.1657 0.140262C25.3455 -0.404155 30.0949 0.636353 34.4138 3.26179C38.7327 5.88722 41.75 9.58165 43.4656 14.3451L48.0371 26.7477C48.327 27.5132 48.2571 28.2433 47.8274 28.9378C47.3976 29.6324 46.7684 30.0232 45.9396 30.1103L40.967 30.633L41.7509 38.0919C41.8947 39.4594 41.5308 40.6812 40.6593 41.7573C39.7879 42.8335 38.6684 43.4434 37.301 43.5872L32.3284 44.1098L32.851 49.0824L10.4743 51.4343Z" fill="black"/>
</svg>
