<svg width="20" height="18" viewBox="0 0 20 18" fill="none" xmlns="http://www.w3.org/2000/svg">
<path d="M8.18198 11.1488C8.49007 11.6232 8.95473 11.9222 9.57596 12.0457C10.1972 12.1692 10.7013 12.0421 11.0883 11.6643L18.3124 4.61216L8.93165 8.34333C8.42911 8.54321 8.1015 8.94215 7.94884 9.54014C7.79617 10.1381 7.87389 10.6743 8.18198 11.1488ZM12.0891 0.222331C13.0509 0.426778 13.9475 0.757923 14.7788 1.21577C15.6101 1.67361 16.3599 2.25469 17.028 2.959L14.9201 3.73774C14.441 3.34625 13.9268 3.01971 13.3775 2.75813C12.8282 2.49654 12.2602 2.30337 11.6733 2.17863C9.50504 1.71776 7.49679 2.08746 5.64852 3.28775C3.80024 4.48803 2.64566 6.17229 2.18479 8.34052C2.03925 9.02522 1.98919 9.7217 2.03459 10.4299C2.08 11.1382 2.2115 11.8222 2.42911 12.4818L15.9275 15.351C16.4342 14.8112 16.8441 14.2253 17.1574 13.5933C17.4706 12.9613 17.7035 12.2866 17.856 11.5693C17.9807 10.9824 18.0327 10.3971 18.0119 9.81335C17.9912 9.22961 17.8977 8.64745 17.7314 8.06686L19.3002 6.45788C19.6264 7.32805 19.8404 8.22547 19.942 9.15014C20.0436 10.0748 20.0039 11.0035 19.8226 11.9362C19.6414 12.8689 19.3466 13.7349 18.9382 14.5341C18.5298 15.3333 18.024 16.0692 17.421 16.7419C17.1793 16.9972 16.8863 17.1735 16.5419 17.2707C16.1975 17.3679 15.8541 17.3801 15.5117 17.3073L2.01328 14.4381C1.67093 14.3653 1.36221 14.2145 1.08711 13.9857C0.812019 13.7568 0.615995 13.4766 0.499041 13.145C0.231111 12.3213 0.0705252 11.4736 0.0172832 10.6018C-0.0359588 9.72999 0.034446 8.83763 0.228497 7.92469C0.516109 6.57159 1.04229 5.35865 1.80705 4.28587C2.5718 3.2131 3.49285 2.32689 4.57019 1.62726C5.64752 0.927632 6.83581 0.447532 8.13504 0.186964C9.43428 -0.0736042 10.7523 -0.0618151 12.0891 0.222331Z" fill="#FFCC00"/>
</svg>
