<svg width="25" height="22" viewBox="0 0 25 22" fill="none" xmlns="http://www.w3.org/2000/svg">
<path d="M21.3451 2.92899C20.8131 2.3967 20.1814 1.97445 19.4861 1.68636C18.7908 1.39828 18.0456 1.25 17.293 1.25C16.5404 1.25 15.7952 1.39828 15.0999 1.68636C14.4047 1.97445 13.773 2.3967 13.2409 2.92899L12.1368 4.03315L11.0326 2.92899C9.95792 1.85431 8.50034 1.25056 6.98051 1.25056C5.46069 1.25056 4.00311 1.85431 2.92843 2.92899C1.85375 4.00366 1.25 5.46124 1.25 6.98107C1.25 8.50089 1.85375 9.95847 2.92843 11.0332L12.1368 20.2415L21.3451 11.0332C21.8774 10.5011 22.2996 9.86942 22.5877 9.17415C22.8758 8.47888 23.0241 7.73366 23.0241 6.98107C23.0241 6.22848 22.8758 5.48326 22.5877 4.78799C22.2996 4.09272 21.8774 3.46102 21.3451 2.92899Z" stroke="#FFCC00" stroke-width="2.5" stroke-linecap="round" stroke-linejoin="round"/>
</svg>
