<svg width="25" height="25" viewBox="0 0 25 25" fill="none" xmlns="http://www.w3.org/2000/svg">
<g clip-path="url(#clip0_273_57)">
<path d="M21.875 10.4167C21.875 17.7083 12.5 23.9583 12.5 23.9583C12.5 23.9583 3.125 17.7083 3.125 10.4167C3.125 7.93026 4.11272 5.54569 5.87087 3.78754C7.62903 2.02939 10.0136 1.04167 12.5 1.04167C14.9864 1.04167 17.371 2.02939 19.1291 3.78754C20.8873 5.54569 21.875 7.93026 21.875 10.4167Z" stroke="#FFCC00" stroke-width="2.5" stroke-linecap="round" stroke-linejoin="round"/>
<path d="M12.5 13.5417C14.2259 13.5417 15.625 12.1426 15.625 10.4167C15.625 8.69078 14.2259 7.29167 12.5 7.29167C10.7741 7.29167 9.375 8.69078 9.375 10.4167C9.375 12.1426 10.7741 13.5417 12.5 13.5417Z" stroke="#FFCC00" stroke-width="2.5" stroke-linecap="round" stroke-linejoin="round"/>
</g>
<defs>
<clipPath id="clip0_273_57">
<rect width="25" height="25" fill="white"/>
</clipPath>
</defs>
</svg>
