<svg width="21" height="20" viewBox="0 0 21 20" fill="none" xmlns="http://www.w3.org/2000/svg">
<path d="M9.05991 18.9484C7.98395 19.1771 6.98143 18.9898 6.05235 18.3865C5.12327 17.7831 4.54438 16.9434 4.31567 15.8675L2.61599 7.87112C2.00036 7.78047 1.45629 7.52552 0.9838 7.10626C0.511306 6.687 0.207487 6.15947 0.0723444 5.52368C-0.100916 4.70855 0.0371066 3.95506 0.486411 3.26319C0.935715 2.57132 1.56793 2.13876 2.38305 1.9655C3.19818 1.79224 3.95167 1.93026 4.64354 2.37956C5.33541 2.82887 5.76797 3.46108 5.94123 4.27621C6.07638 4.912 6.01339 5.5175 5.75227 6.09269C5.49115 6.66788 5.09783 7.12208 4.57229 7.4553L6.27197 15.4517C6.38632 15.9896 6.67577 16.4095 7.14031 16.7111C7.60485 17.0128 8.10611 17.1065 8.64409 16.9921C9.18207 16.8778 9.6019 16.5883 9.90357 16.1238C10.2053 15.6593 10.2989 15.158 10.1846 14.62L8.10544 4.83853C7.87674 3.76257 8.06406 2.76004 8.66741 1.83096C9.27076 0.901884 10.1104 0.322993 11.1864 0.0942894C12.2623 -0.134414 13.2649 0.0529104 14.1939 0.656262C15.123 1.25961 15.7019 2.09927 15.9306 3.17523L17.6303 11.1716C18.2459 11.2622 18.79 11.5172 19.2625 11.9365C19.735 12.3557 20.0388 12.8832 20.174 13.519C20.3472 14.3342 20.2092 15.0877 19.7599 15.7795C19.3106 16.4714 18.6784 16.904 17.8632 17.0772C17.0481 17.2505 16.2946 17.1125 15.6028 16.6632C14.9109 16.2138 14.4783 15.5816 14.3051 14.7665C14.1699 14.1307 14.232 13.5211 14.4914 12.9378C14.7508 12.3545 15.145 11.9043 15.674 11.5874L13.9743 3.59106C13.86 3.05308 13.5705 2.63325 13.106 2.33157C12.6415 2.0299 12.1402 1.93623 11.6022 2.05059C11.0642 2.16494 10.6444 2.45438 10.3427 2.91892C10.041 3.38346 9.94738 3.88472 10.0617 4.42271L12.1409 14.2042C12.3696 15.2801 12.1822 16.2827 11.5789 17.2118C10.9755 18.1408 10.1359 18.7197 9.05991 18.9484ZM3.2147 5.87809C3.49184 5.81918 3.70423 5.67606 3.85186 5.44873C3.99948 5.22141 4.04384 4.96917 3.98494 4.69203C3.92603 4.41489 3.78291 4.2025 3.55558 4.05487C3.32825 3.90724 3.07602 3.86288 2.79888 3.92179C2.52173 3.9807 2.30935 4.12382 2.16172 4.35115C2.01409 4.57848 1.96973 4.83071 2.02864 5.10785C2.08755 5.385 2.23067 5.59738 2.458 5.74501C2.68532 5.89264 2.93756 5.937 3.2147 5.87809ZM17.4474 15.1209C17.7246 15.062 17.9369 14.9189 18.0846 14.6916C18.2322 14.4642 18.2766 14.212 18.2177 13.9349C18.1587 13.6577 18.0156 13.4453 17.7883 13.2977C17.561 13.1501 17.3087 13.1057 17.0316 13.1646C16.7545 13.2235 16.5421 13.3667 16.3944 13.594C16.2468 13.8213 16.2025 14.0735 16.2614 14.3507C16.3203 14.6278 16.4634 14.8402 16.6907 14.9878C16.918 15.1355 17.1703 15.1798 17.4474 15.1209Z" fill="#FFCC00"/>
</svg>
